<?xml version="1.0" standalone="no"?>
<!DOCTYPE svg PUBLIC "-//W3C//DTD SVG 20010904//EN"
 "http://www.w3.org/TR/2001/REC-SVG-20010904/DTD/svg10.dtd">
<svg version="1.0" xmlns="http://www.w3.org/2000/svg"
 width="408.000000pt" height="337.000000pt" viewBox="0 0 408.000000 337.000000"
 preserveAspectRatio="xMidYMid meet">

<g transform="translate(0.000000,337.000000) scale(0.100000,-0.100000)"
fill="#000000" stroke="none">
<path d="M1095 3200 c-356 -46 -693 -286 -818 -583 -100 -239 -81 -573 44
-784 51 -84 171 -206 264 -268 110 -74 215 -121 447 -201 106 -37 230 -83 276
-103 l83 -36 30 -90 c62 -188 199 -436 306 -555 24 -26 43 -55 43 -64 0 -33
-44 -102 -101 -158 -159 -155 -439 -201 -693 -113 -191 66 -376 263 -537 570
-60 114 -149 328 -171 409 l-12 46 -48 0 -48 0 0 -576 0 -576 51 4 50 3 24 60
c30 73 61 102 118 110 57 9 105 -5 241 -70 188 -89 318 -122 526 -131 282 -14
550 57 762 200 l66 45 116 -58 c430 -216 947 -239 1416 -64 158 59 342 157
443 235 l37 30 0 534 0 534 -565 0 -565 0 0 -65 0 -65 235 0 235 0 0 -540 0
-539 -82 -40 c-141 -68 -281 -91 -427 -71 -210 29 -406 146 -528 317 l-45 64
32 81 c157 398 99 786 -167 1114 l-33 41 0 207 0 207 34 88 c113 293 271 524
434 635 107 73 165 90 312 90 113 0 132 -2 194 -27 154 -61 299 -191 427 -386
82 -123 172 -303 225 -448 l38 -103 42 0 c29 0 44 5 48 16 3 9 6 245 6 525 l0
509 -52 0 -53 0 -25 -52 c-34 -70 -64 -90 -137 -92 -50 -1 -77 7 -193 58 -77
33 -182 69 -245 84 -99 24 -129 26 -300 26 -158 0 -205 -4 -281 -21 -112 -26
-261 -81 -376 -139 l-88 -44 0 110 0 110 -53 0 -52 0 -18 -49 c-20 -58 -60
-91 -109 -92 -18 -1 -67 15 -109 34 -190 88 -473 133 -674 107z m256 -110
c133 -25 257 -120 358 -274 l51 -78 -65 -70 c-123 -133 -237 -334 -290 -510
-16 -54 -34 -98 -40 -98 -20 0 -256 81 -322 111 -208 93 -336 237 -364 408
-36 224 137 452 384 506 75 16 214 19 288 5z m531 -558 c51 -52 103 -75 175
-76 35 -1 63 -4 63 -7 0 -27 -40 -112 -68 -143 -61 -69 -77 -117 -77 -236 0
-125 9 -147 128 -303 98 -129 171 -271 204 -394 22 -83 26 -121 27 -243 1
-153 -8 -211 -51 -345 -26 -85 -99 -231 -137 -278 l-23 -29 0 76 c1 62 -2 81
-19 103 -35 47 -80 67 -149 66 -70 -1 -113 -18 -166 -69 l-35 -34 -49 67 c-69
96 -166 275 -161 296 2 9 1 15 -4 12 -8 -5 -62 117 -58 133 1 4 -4 20 -10 35
-17 40 -14 57 4 24 20 -37 24 -34 13 11 -11 46 -11 65 -1 59 4 -3 6 180 5 406
-1 283 2 415 9 424 8 10 7 12 -4 8 -15 -6 -34 22 -23 33 3 3 5 0 5 -6 0 -7 5
-12 10 -12 7 0 7 6 1 18 -7 13 -6 23 1 30 9 9 9 12 0 12 -6 0 -18 -12 -26 -27
-23 -42 -19 -25 13 63 56 157 165 340 259 436 l46 48 33 -62 c18 -34 48 -77
65 -96z m-441 -445 c-10 -9 -11 -8 -5 6 3 10 9 15 12 12 3 -3 0 -11 -7 -18z"/>
<path d="M1495 2199 c-4 -6 -5 -12 -2 -15 2 -3 7 2 10 11 7 17 1 20 -8 4z"/>
</g>
</svg>
